<svg xmlns="http://www.w3.org/2000/svg" xmlns:xlink="http://www.w3.org/1999/xlink" version="1.1" data-diagram-type="DESCRIPTION" style="width:2180px;height:796px;background:#FFFFFF;" width="2180px" height="796px" viewBox="0 0 2180 796" zoomAndPan="magnify" preserveAspectRatio="none" contentStyleType="text/css"><?plantuml 1.2026.9beta4?><defs/><g font-family="sans-serif" lengthAdjust="spacing"><!--entity USER--><g class="entity" data-qualified-name="USER" id="ent0001" data-source-line="21"><ellipse cx="59.409" cy="544.926" rx="8" ry="8" fill="#FFF" style="stroke:#000;stroke-width:0.5;"/><path d="M59.409,552.926 L59.409,579.926 M46.409,560.926 L72.409,560.926 M59.409,579.926 L46.409,594.926 M59.409,579.926 L72.409,594.926" style="stroke:#000;stroke-width:0.5;" fill="none"/><text x="6" y="609.421" fill="#000" font-size="14" textLength="106.818">CITIZEN / USER</text></g><!--entity RESPONDER--><g class="entity" data-qualified-name="RESPONDER" id="ent0002" data-source-line="22"><ellipse cx="452.415" cy="280.926" rx="8" ry="8" fill="#FFF" style="stroke:#000;stroke-width:0.5;"/><path d="M452.415,288.926 L452.415,315.926 M439.415,296.926 L465.415,296.926 M452.415,315.926 L439.415,330.926 M452.415,315.926 L465.415,330.926" style="stroke:#000;stroke-width:0.5;" fill="none"/><text x="362.82" y="345.421" fill="#000" font-size="14" textLength="179.19">EMERGENCY RESPONDER</text></g><!--entity ADMIN--><g class="entity" data-qualified-name="ADMIN" id="ent0003" data-source-line="23"><ellipse cx="452.414" cy="96.926" rx="8" ry="8" fill="#FFF" style="stroke:#000;stroke-width:0.5;"/><path d="M452.414,104.926 L452.414,131.926 M439.414,112.926 L465.414,112.926 M452.414,131.926 L439.414,146.926 M452.414,131.926 L465.414,146.926" style="stroke:#000;stroke-width:0.5;" fill="none"/><text x="393.81" y="161.421" fill="#000" font-size="14" textLength="117.209">ADMINISTRATOR</text></g><!--entity IDB--><g class="entity" data-qualified-name="IDB" id="ent0004" data-source-line="25"><rect x="2020.51" y="333.426" width="111.294" height="36.297" fill="#FFF" style="stroke:#000;stroke-width:0.5;" rx="35" ry="35"/><text x="2030.51" y="356.421" fill="#000" font-size="14" textLength="91.294">D2 INCIDENT</text></g><!--entity IUDB--><g class="entity" data-qualified-name="IUDB" id="ent0005" data-source-line="26"><rect x="1985.78" y="601.426" width="180.768" height="36.297" fill="#FFF" style="stroke:#000;stroke-width:0.5;" rx="35" ry="35"/><text x="1995.78" y="624.421" fill="#000" font-size="14" textLength="160.768">D2a INCIDENT UPDATE</text></g><!--entity ADB--><g class="entity" data-qualified-name="ADB" id="ent0006" data-source-line="27"><rect x="1580.32" y="261.426" width="136.888" height="36.297" fill="#FFF" style="stroke:#000;stroke-width:0.5;" rx="35" ry="35"/><text x="1590.32" y="284.421" fill="#000" font-size="14" textLength="116.888">D5 ASSIGNMENT</text></g><!--entity TDB--><g class="entity" data-qualified-name="TDB" id="ent0007" data-source-line="28"><rect x="1576.78" y="332.426" width="143.97" height="36.297" fill="#FFF" style="stroke:#000;stroke-width:0.5;" rx="35" ry="35"/><text x="1586.78" y="355.421" fill="#000" font-size="14" textLength="123.97">D4 RESCUE TEAM</text></g><!--entity UDB--><g class="entity" data-qualified-name="UDB" id="ent0008" data-source-line="29"><rect x="2035.24" y="75.426" width="81.845" height="36.297" fill="#FFF" style="stroke:#000;stroke-width:0.5;" rx="35" ry="35"/><text x="2045.24" y="98.421" fill="#000" font-size="14" textLength="61.845">D1 USER</text></g><!--entity NDB--><g class="entity" data-qualified-name="NDB" id="ent0009" data-source-line="30"><rect x="1576.76" y="404.426" width="144.018" height="36.297" fill="#FFF" style="stroke:#000;stroke-width:0.5;" rx="35" ry="35"/><text x="1586.76" y="427.421" fill="#000" font-size="14" textLength="124.018">D7 NOTIFICATION</text></g><!--entity P21--><g class="entity" data-qualified-name="P21" id="ent0010" data-source-line="32"><rect x="408.84" y="646.126" width="87.156" height="68.891" fill="#FFF" style="stroke:#000;stroke-width:0.5;" rx="2.5" ry="2.5"/><text x="418.84" y="669.121" fill="#000" font-size="14" textLength="22.265">2.1</text><text x="418.84" y="685.418" fill="#000" font-size="14" textLength="55.323">CREATE</text><text x="418.84" y="701.715" fill="#000" font-size="14" textLength="67.156">INCIDENT</text></g><!--entity P22--><g class="entity" data-qualified-name="P22" id="ent0011" data-source-line="33"><rect x="865.09" y="702.126" width="88.845" height="68.891" fill="#FFF" style="stroke:#000;stroke-width:0.5;" rx="2.5" ry="2.5"/><text x="875.09" y="725.121" fill="#000" font-size="14" textLength="22.265">2.2</text><text x="875.09" y="741.418" fill="#000" font-size="14" textLength="68.838">VALIDATE</text><text x="875.09" y="757.715" fill="#000" font-size="14" textLength="68.845">&amp; ENRICH</text></g><!--entity P23--><g class="entity" data-qualified-name="P23" id="ent0012" data-source-line="34"><rect x="1223.81" y="603.126" width="87.156" height="68.891" fill="#FFF" style="stroke:#000;stroke-width:0.5;" rx="2.5" ry="2.5"/><text x="1233.81" y="626.121" fill="#000" font-size="14" textLength="22.265">2.3</text><text x="1233.81" y="642.418" fill="#000" font-size="14" textLength="57.47">PERSIST</text><text x="1233.81" y="658.715" fill="#000" font-size="14" textLength="67.156">INCIDENT</text></g><!--entity P24--><g class="entity" data-qualified-name="P24" id="ent0013" data-source-line="35"><rect x="857.27" y="219.126" width="104.485" height="68.891" fill="#FFF" style="stroke:#000;stroke-width:0.5;" rx="2.5" ry="2.5"/><text x="867.27" y="242.121" fill="#000" font-size="14" textLength="22.265">2.4</text><text x="867.27" y="258.418" fill="#000" font-size="14" textLength="54.701">STATUS</text><text x="867.27" y="274.715" fill="#000" font-size="14" textLength="84.485">WORKFLOW</text></g><!--entity P25--><g class="entity" data-qualified-name="P25" id="ent0014" data-source-line="36"><rect x="1588.14" y="77.126" width="121.261" height="68.891" fill="#FFF" style="stroke:#000;stroke-width:0.5;" rx="2.5" ry="2.5"/><text x="1598.14" y="100.121" fill="#000" font-size="14" textLength="22.265">2.5</text><text x="1598.14" y="116.418" fill="#000" font-size="14" textLength="101.261">OWNERSHIP &amp;</text><text x="1598.14" y="132.715" fill="#000" font-size="14" textLength="69.487">VISIBILITY</text></g><!--entity P26--><g class="entity" data-qualified-name="P26" id="ent0015" data-source-line="37"><rect x="1585.23" y="667.126" width="127.078" height="68.891" fill="#FFF" style="stroke:#000;stroke-width:0.5;" rx="2.5" ry="2.5"/><text x="1595.23" y="690.121" fill="#000" font-size="14" textLength="22.265">2.6</text><text x="1595.23" y="706.418" fill="#000" font-size="14" textLength="95.396">RISK ASSESS-</text><text x="1595.23" y="722.715" fill="#000" font-size="14" textLength="107.078">MENT TRIGGER</text></g><!--entity P27--><g class="entity" data-qualified-name="P27" id="ent0016" data-source-line="38"><rect x="1596.1" y="563.126" width="105.326" height="68.891" fill="#FFF" style="stroke:#000;stroke-width:0.5;" rx="2.5" ry="2.5"/><text x="1606.1" y="586.121" fill="#000" font-size="14" textLength="22.265">2.7</text><text x="1606.1" y="602.418" fill="#000" font-size="14" textLength="61.394">HISTORY</text><text x="1606.1" y="618.715" fill="#000" font-size="14" textLength="85.326">RECORDING</text></g><!--entity P28--><g class="entity" data-qualified-name="P28" id="ent0017" data-source-line="39"><rect x="1211.01" y="280.126" width="112.75" height="68.891" fill="#FFF" style="stroke:#000;stroke-width:0.5;" rx="2.5" ry="2.5"/><text x="1221.01" y="303.121" fill="#000" font-size="14" textLength="22.265">2.8</text><text x="1221.01" y="319.418" fill="#000" font-size="14" textLength="92.75">ASSIGNMENT</text><text x="1221.01" y="335.715" fill="#000" font-size="14" textLength="57.032">LINKING</text></g><!--entity AI--><g class="entity" data-qualified-name="AI" id="ent0018" data-source-line="41"><rect x="2009" y="729.426" width="134.317" height="36.297" fill="#FFF" style="stroke:#000;stroke-width:0.5;" rx="2.5" ry="2.5"/><text x="2019" y="752.421" fill="#000" font-size="14" textLength="114.317">AI RISK SERVICE</text></g><!--link USER to P21--><g class="link" data-entity-1="ent0001" data-entity-2="ent0010" id="lnk19" data-source-line="44" data-link-type="dependency"><path d="M107.5,613.186 C118.54,620.646 130.65,627.656 142.82,632.566 C232.56,668.806 342.193,677.67 403.363,679.82" style="stroke:#181818;stroke-width:1;" fill="none" id="USER-to-P21"/><polygon points="408.36,679.996,399.506,675.682,403.363,679.82,399.225,683.677,408.36,679.996" fill="#181818" style="stroke:#181818;stroke-width:1;stroke-linejoin:miter;stroke-miterlimit:10;"/><text x="143.82" y="613.633" fill="#000" font-size="13" textLength="188.665">SOS request (type, category,</text><text x="169.553" y="628.766" fill="#000" font-size="13" textLength="137.198">description, location)</text></g><!--link P21 to P22--><g class="link" data-entity-1="ent0010" data-entity-2="ent0011" id="lnk20" data-source-line="45" data-link-type="dependency"><path d="M496.23,685.836 C582.74,696.486 772.597,719.845 859.847,730.585" style="stroke:#181818;stroke-width:1;" fill="none" id="P21-to-P22"/><polygon points="864.81,731.196,856.366,726.126,859.847,730.585,855.389,734.066,864.81,731.196" fill="#181818" style="stroke:#181818;stroke-width:1;stroke-linejoin:miter;stroke-miterlimit:10;"/><text x="644.01" y="691.633" fill="#000" font-size="13" textLength="79.771">raw payload</text></g><!--link P22 to P22--><g class="link" data-entity-1="ent0011" data-entity-2="ent0011" id="lnk21" data-source-line="46" data-link-type="dependency"><path d="M874.7,701.906 C869.07,683.666 880.67,667.126 909.51,667.126 C938.35,667.126 951.425,678.888 945.795,697.128" style="stroke:#181818;stroke-width:1;" fill="none" id="P22-to-P22"/><polygon points="944.32,701.906,950.796,694.486,945.795,697.128,943.152,692.127,944.32,701.906" fill="#181818" style="stroke:#181818;stroke-width:1;stroke-linejoin:miter;stroke-miterlimit:10;"/><text x="799.01" y="628.193" fill="#000" font-size="13" textLength="221.667">normalize phone, validate enums,</text><text x="799.289" y="643.326" fill="#000" font-size="13" textLength="221.108">numeric coordinate ranges, reject</text><text x="816.225" y="658.458" fill="#000" font-size="13" textLength="187.237">forged status/userId/location</text></g><!--link P22 to P23--><g class="link" data-entity-1="ent0011" data-entity-2="ent0012" id="lnk22" data-source-line="47" data-link-type="dependency"><path d="M954.15,724.426 C1022.82,705.326 1150.483,669.816 1218.683,650.836" style="stroke:#181818;stroke-width:1;" fill="none" id="P22-to-P23"/><polygon points="1223.5,649.496,1213.757,648.055,1218.683,650.836,1215.902,655.762,1223.5,649.496" fill="#181818" style="stroke:#181818;stroke-width:1;stroke-linejoin:miter;stroke-miterlimit:10;"/><text x="1056.01" y="656.633" fill="#000" font-size="13" textLength="93.863">validated data</text></g><!--link P23 to IDB--><g class="link" data-entity-1="ent0012" data-entity-2="ent0004" id="lnk23" data-source-line="48" data-link-type="dependency"><path d="M1302.91,602.806 C1310.24,594.556 1317.62,585.536 1323.76,576.566 C1340.6,551.966 1329.31,533.626 1353.76,516.566 C1421.06,469.606 1640.76,493.796 1720.78,475.566 C1836.29,449.266 1961.8,399.743 2027.56,372.113" style="stroke:#181818;stroke-width:1;" fill="none" id="P23-to-IDB"/><polygon points="2032.17,370.176,2022.323,369.974,2027.56,372.113,2025.422,377.35,2032.17,370.176" fill="#181818" style="stroke:#181818;stroke-width:1;stroke-linejoin:miter;stroke-miterlimit:10;"/><text x="1625.77" y="471.633" fill="#000" font-size="13" textLength="46.998">INSERT</text></g><!--link P23 to P27--><g class="link" data-entity-1="ent0012" data-entity-2="ent0016" id="lnk24" data-source-line="49" data-link-type="dependency"><path d="M1311.28,642.196 C1366.35,647.056 1464.59,652.036 1546.76,636.566 C1563.11,633.496 1575.564,629.709 1590.964,623.679" style="stroke:#181818;stroke-width:1;" fill="none" id="P23-to-P27"/><polygon points="1595.62,621.856,1585.781,621.413,1590.964,623.679,1588.698,628.862,1595.62,621.856" fill="#181818" style="stroke:#181818;stroke-width:1;stroke-linejoin:miter;stroke-miterlimit:10;"/><text x="1373.26" y="632.633" fill="#000" font-size="13" textLength="154.515">seed REPORTED history</text></g><!--link P27 to IUDB--><g class="link" data-entity-1="ent0016" data-entity-2="ent0005" id="lnk25" data-source-line="50" data-link-type="dependency"><path d="M1701.93,600.266 C1772.48,603.916 1894.377,610.218 1980.407,614.668" style="stroke:#181818;stroke-width:1;" fill="none" id="P27-to-IUDB"/><polygon points="1985.4,614.926,1976.619,610.466,1980.407,614.668,1976.205,618.456,1985.4,614.926" fill="#181818" style="stroke:#181818;stroke-width:1;stroke-linejoin:miter;stroke-miterlimit:10;"/><text x="1790.78" y="598.633" fill="#000" font-size="13" textLength="125.385">INSERT initial entry</text></g><!--link P27 to IUDB--><g class="link" data-entity-1="ent0016" data-entity-2="ent0005" id="lnk35" data-source-line="62" data-link-type="dependency"><path d="M1701.85,622.516 C1717.25,628.696 1734.38,634.446 1750.78,637.566 C1829.17,652.526 1915.06,646.16 1980.63,636.83" style="stroke:#181818;stroke-width:1;" fill="none" id="P27-to-IUDB-1"/><polygon points="1985.58,636.126,1976.106,633.434,1980.63,636.83,1977.233,641.354,1985.58,636.126" fill="#181818" style="stroke:#181818;stroke-width:1;stroke-linejoin:miter;stroke-miterlimit:10;"/><text x="1751.78" y="633.633" fill="#000" font-size="13" textLength="203.842">INSERT prev->new, changedBy</text></g><!--link P23 to P26--><g class="link" data-entity-1="ent0012" data-entity-2="ent0015" id="lnk26" data-source-line="51" data-link-type="dependency"><path d="M1311.05,657.256 C1324.47,662.706 1339.5,668.076 1353.76,671.566 C1432,690.746 1519.854,697.478 1579.974,699.978" style="stroke:#181818;stroke-width:1;" fill="none" id="P23-to-P26"/><polygon points="1584.97,700.186,1576.144,695.815,1579.974,699.978,1575.812,703.809,1584.97,700.186" fill="#181818" style="stroke:#181818;stroke-width:1;stroke-linejoin:miter;stroke-miterlimit:10;"/><text x="1381.26" y="667.633" fill="#000" font-size="13" textLength="138.931">incident id + location</text></g><!--link P26 to AI--><g class="link" data-entity-1="ent0015" data-entity-2="ent0018" id="lnk27" data-source-line="52" data-link-type="dependency"><path d="M1712.54,708.356 C1791.81,716.926 1922.639,731.078 2003.659,739.838" style="stroke:#181818;stroke-width:1;" fill="none" id="P26-to-AI"/><polygon points="2008.63,740.376,2000.112,735.432,2003.659,739.838,1999.252,743.385,2008.63,740.376" fill="#181818" style="stroke:#181818;stroke-width:1;stroke-linejoin:miter;stroke-miterlimit:10;"/><text x="1773.036" y="693.633" fill="#000" font-size="13" textLength="160.812">factors (active incidents,</text><text x="1769.78" y="708.766" fill="#000" font-size="13" textLength="167.324">verified reports, facilities)</text></g><!--link AI to P26--><g class="link" data-entity-1="ent0018" data-entity-2="ent0015" id="lnk28" data-source-line="53" data-link-type="dependency"><path d="M2008.69,760.816 C1942.23,771.516 1837.7,781.406 1750.78,758.566 C1733.15,753.936 1719.691,747.955 1704.061,738.935" style="stroke:#181818;stroke-width:1;" fill="none" id="AI-to-P26"/><polygon points="1699.73,736.436,1705.526,744.399,1704.061,738.935,1709.524,737.47,1699.73,736.436" fill="#181818" style="stroke:#181818;stroke-width:1;stroke-linejoin:miter;stroke-miterlimit:10;"/><text x="1789.78" y="754.633" fill="#000" font-size="13" textLength="127.194">score 0-100 + level</text></g><!--link P26 to IDB--><g class="link" data-entity-1="ent0015" data-entity-2="ent0004" id="lnk29" data-source-line="54" data-link-type="dependency"><path d="M1704.17,666.716 C1710.24,661.446 1715.96,655.696 1720.78,649.566 C1742.22,622.326 1723.97,599.546 1750.78,577.566 C1822.63,518.666 1878.96,588.846 1955.78,536.566 C2017.87,494.306 2053.258,412.62 2067.148,374.75" style="stroke:#181818;stroke-width:1;" fill="none" id="P26-to-IDB"/><polygon points="2068.87,370.056,2062.015,377.128,2067.148,374.75,2069.526,379.883,2068.87,370.056" fill="#181818" style="stroke:#181818;stroke-width:1;stroke-linejoin:miter;stroke-miterlimit:10;"/><text x="1813.78" y="532.633" fill="#000" font-size="13" textLength="79.803">UPDATE risk</text></g><!--reverse link USER to P23--><g class="link" data-entity-1="ent0001" data-entity-2="ent0012" id="lnk30" data-source-line="55" data-link-type="dependency"><path d="M118.119,575.429 C260.379,577.789 659.08,586.106 994.01,609.566 C1075.33,615.266 1169.94,625.896 1223.53,632.296" style="stroke:#181818;stroke-width:1;" fill="none" id="USER-backto-P23"/><polygon points="113.12,575.346,122.052,579.495,118.119,575.429,122.185,571.496,113.12,575.346" fill="#181818" style="stroke:#181818;stroke-width:1;stroke-linejoin:miter;stroke-miterlimit:10;"/><text x="591.01" y="583.633" fill="#000" font-size="13" textLength="185.453">201 + id, status=REPORTED</text></g><!--link RESPONDER to P24--><g class="link" data-entity-1="ent0002" data-entity-2="ent0013" id="lnk31" data-source-line="58" data-link-type="dependency"><path d="M542.23,323.336 C612.02,330.526 711.11,334.386 795.01,313.566 C816.43,308.256 833.888,300.53 852.608,290.04" style="stroke:#181818;stroke-width:1;" fill="none" id="RESPONDER-to-P24"/><polygon points="856.97,287.596,847.163,288.506,852.608,290.04,851.074,295.485,856.97,287.596" fill="#181818" style="stroke:#181818;stroke-width:1;stroke-linejoin:miter;stroke-miterlimit:10;"/><text x="573.01" y="309.633" fill="#000" font-size="13" textLength="221.495">advance (EN_ROUTE / ON_SCENE)</text></g><!--reverse link RESPONDER to P24--><g class="link" data-entity-1="ent0002" data-entity-2="ent0013" id="lnk42" data-source-line="69" data-link-type="dependency"><path d="M547.358,295.997 C557.338,294.547 562.41,293.856 572.01,292.566 C672.71,279.096 790.73,266.046 856.84,258.986" style="stroke:#181818;stroke-width:1;" fill="none" id="RESPONDER-backto-P24"/><polygon points="542.41,296.716,551.892,299.38,547.358,295.997,550.741,291.463,542.41,296.716" fill="#181818" style="stroke:#181818;stroke-width:1;stroke-linejoin:miter;stroke-miterlimit:10;"/><text x="617.01" y="262.633" fill="#000" font-size="13" textLength="133.802">assignment updated</text></g><!--link ADMIN to P24--><g class="link" data-entity-1="ent0003" data-entity-2="ent0013" id="lnk32" data-source-line="59" data-link-type="dependency"><path d="M511.51,142.786 C601.13,167.796 766.834,214.032 852.254,237.872" style="stroke:#181818;stroke-width:1;" fill="none" id="ADMIN-to-P24"/><polygon points="857.07,239.216,849.477,232.944,852.254,237.872,847.326,240.649,857.07,239.216" fill="#181818" style="stroke:#181818;stroke-width:1;stroke-linejoin:miter;stroke-miterlimit:10;"/><text x="583.51" y="157.633" fill="#000" font-size="13" textLength="200.484">any transition / force complete</text></g><!--link P24 to IDB--><g class="link" data-entity-1="ent0013" data-entity-2="ent0004" id="lnk33" data-source-line="60" data-link-type="dependency"><path d="M962.09,247.266 C1090.93,232.736 1436.92,201.276 1720.78,243.566 C1834.97,260.586 1958.596,305.007 2025.076,331.127" style="stroke:#181818;stroke-width:1;" fill="none" id="P24-to-IDB"/><polygon points="2029.73,332.956,2022.816,325.942,2025.076,331.127,2019.891,333.388,2029.73,332.956" fill="#181818" style="stroke:#181818;stroke-width:1;stroke-linejoin:miter;stroke-miterlimit:10;"/><text x="1402.26" y="218.633" fill="#000" font-size="13" textLength="96.491">UPDATE status</text></g><!--link P24 to P27--><g class="link" data-entity-1="ent0013" data-entity-2="ent0016" id="lnk34" data-source-line="61" data-link-type="dependency"><path d="M952.9,288.416 C973.6,304.516 999.32,323.206 1024.01,337.566 C1241.88,464.336 1311.89,466.046 1546.76,557.566 C1562.66,563.766 1575.302,568.744 1591.002,574.964" style="stroke:#181818;stroke-width:1;" fill="none" id="P24-to-P27"/><polygon points="1595.65,576.806,1588.756,569.772,1591.002,574.964,1585.809,577.21,1595.65,576.806" fill="#181818" style="stroke:#181818;stroke-width:1;stroke-linejoin:miter;stroke-miterlimit:10;"/><text x="1221.88" y="431.633" fill="#000" font-size="13" textLength="91.92">status change</text></g><!--link P24 to P28--><g class="link" data-entity-1="ent0013" data-entity-2="ent0017" id="lnk36" data-source-line="63" data-link-type="dependency"><path d="M962.15,259.316 C1016.79,265.796 1105.41,277.426 1181.01,292.566 C1190.61,294.496 1195.896,295.638 1205.706,298.058" style="stroke:#181818;stroke-width:1;" fill="none" id="P24-to-P28"/><polygon points="1210.56,299.256,1202.78,293.217,1205.706,298.058,1200.864,300.984,1210.56,299.256" fill="#181818" style="stroke:#181818;stroke-width:1;stroke-linejoin:miter;stroke-miterlimit:10;"/><text x="1059.01" y="264.633" fill="#000" font-size="13" textLength="87.579">on ASSIGNED</text></g><!--link P24 to P28--><g class="link" data-entity-1="ent0013" data-entity-2="ent0017" id="lnk37" data-source-line="64" data-link-type="dependency"><path d="M959.52,288.486 C978.7,300.136 1001.47,311.656 1024.01,317.566 C1086.49,333.976 1156.217,330.235 1206.017,324.125" style="stroke:#181818;stroke-width:1;" fill="none" id="P24-to-P28-1"/><polygon points="1210.98,323.516,1201.56,320.642,1206.017,324.125,1202.534,328.582,1210.98,323.516" fill="#181818" style="stroke:#181818;stroke-width:1;stroke-linejoin:miter;stroke-miterlimit:10;"/><text x="1025.01" y="313.633" fill="#000" font-size="13" textLength="155.333">on assignment advance</text></g><!--link P28 to ADB--><g class="link" data-entity-1="ent0017" data-entity-2="ent0006" id="lnk38" data-source-line="65" data-link-type="dependency"><path d="M1323.92,307.806 C1333.85,306.666 1344.11,305.546 1353.76,304.566 C1431.23,296.746 1515.365,289.787 1574.995,285.107" style="stroke:#181818;stroke-width:1;" fill="none" id="P28-to-ADB"/><polygon points="1579.98,284.716,1570.695,281.432,1574.995,285.107,1571.321,289.408,1579.98,284.716" fill="#181818" style="stroke:#181818;stroke-width:1;stroke-linejoin:miter;stroke-miterlimit:10;"/><text x="1354.76" y="284.633" fill="#000" font-size="13" textLength="191.801">INSERT / UPDATE assignment</text></g><!--link P28 to TDB--><g class="link" data-entity-1="ent0017" data-entity-2="ent0007" id="lnk39" data-source-line="66" data-link-type="dependency"><path d="M1323.83,325.166 C1333.77,326.816 1344.05,328.376 1353.76,329.566 C1429.56,338.916 1511.916,344.242 1571.586,347.282" style="stroke:#181818;stroke-width:1;" fill="none" id="P28-to-TDB"/><polygon points="1576.58,347.536,1567.795,343.083,1571.586,347.282,1567.388,351.073,1576.58,347.536" fill="#181818" style="stroke:#181818;stroke-width:1;stroke-linejoin:miter;stroke-miterlimit:10;"/><text x="1407.76" y="325.633" fill="#000" font-size="13" textLength="85.776">team activity</text></g><!--link P28 to P25--><g class="link" data-entity-1="ent0017" data-entity-2="ent0014" id="lnk40" data-source-line="67" data-link-type="dependency"><path d="M1283.12,279.666 C1297.06,251.086 1320.77,211.996 1353.76,190.566 C1426.93,143.036 1463.23,179.806 1546.76,154.566 C1560.26,150.486 1569.78,147.087 1583.05,141.597" style="stroke:#181818;stroke-width:1;" fill="none" id="P28-to-P25"/><polygon points="1587.67,139.686,1577.824,139.43,1583.05,141.597,1580.883,146.823,1587.67,139.686" fill="#181818" style="stroke:#181818;stroke-width:1;stroke-linejoin:miter;stroke-miterlimit:10;"/><text x="1398.76" y="150.633" fill="#000" font-size="13" textLength="103.975">refresh visibility</text></g><!--link P28 to P26--><g class="link" data-entity-1="ent0017" data-entity-2="ent0015" id="lnk41" data-source-line="68" data-link-type="dependency"><path d="M1282.68,349.496 C1296.47,378.606 1320.22,418.726 1353.76,440.566 C1426.81,488.146 1485.38,413.656 1546.76,475.566 C1602.01,531.296 1535.43,582.866 1576.76,649.566 C1580.62,655.806 1581.915,658.071 1587.345,663.261" style="stroke:#181818;stroke-width:1;" fill="none" id="P28-to-P26"/><polygon points="1590.96,666.716,1587.218,657.606,1587.345,663.261,1581.69,663.389,1590.96,666.716" fill="#181818" style="stroke:#181818;stroke-width:1;stroke-linejoin:miter;stroke-miterlimit:10;"/><text x="1399.76" y="436.633" fill="#000" font-size="13" textLength="101.994">re-evaluate risk</text></g><!--link P25 to UDB--><g class="link" data-entity-1="ent0014" data-entity-2="ent0008" id="lnk43" data-source-line="72" data-link-type="dependency"><path d="M1709.81,109.026 C1797.87,105.306 1954.714,98.667 2029.864,95.487" style="stroke:#181818;stroke-width:1;" fill="none" id="P25-to-UDB"/><polygon points="2034.86,95.276,2025.699,91.66,2029.864,95.487,2026.037,99.653,2034.86,95.276" fill="#181818" style="stroke:#181818;stroke-width:1;stroke-linejoin:miter;stroke-miterlimit:10;"/><text x="1807.78" y="95.633" fill="#000" font-size="13" textLength="91.673">resolve owner</text></g><!--link P25 to IDB--><g class="link" data-entity-1="ent0014" data-entity-2="ent0004" id="lnk44" data-source-line="73" data-link-type="dependency"><path d="M1709.6,124.546 C1792.74,142.916 1935.34,175.806 1955.78,189.566 C2011.27,226.936 2048.38,294.547 2064.65,328.507" style="stroke:#181818;stroke-width:1;" fill="none" id="P25-to-IDB"/><polygon points="2066.81,333.016,2066.529,323.171,2064.65,328.507,2059.314,326.628,2066.81,333.016" fill="#181818" style="stroke:#181818;stroke-width:1;stroke-linejoin:miter;stroke-miterlimit:10;"/><text x="1806.28" y="131.633" fill="#000" font-size="13" textLength="94.618">filter by owner</text></g><!--reverse link USER to P25--><g class="link" data-entity-1="ent0001" data-entity-2="ent0014" id="lnk45" data-source-line="74" data-link-type="dependency"><path d="M69.03,531.38 C96.15,406.42 199.52,23.566 451.41,23.566 C451.41,23.566 451.41,23.566 1268.38,23.566 C1383.67,23.566 1513.67,62.606 1587.66,88.676" style="stroke:#181818;stroke-width:1;" fill="none" id="USER-backto-P25"/><polygon points="67.97,536.266,73.788,528.319,69.03,531.38,65.97,526.622,67.97,536.266" fill="#181818" style="stroke:#181818;stroke-width:1;stroke-linejoin:miter;stroke-miterlimit:10;"/><text x="849.01" y="19.633" fill="#000" font-size="13" textLength="121.558">own incidents only</text></g><!--reverse link ADMIN to P25--><g class="link" data-entity-1="ent0003" data-entity-2="ent0014" id="lnk46" data-source-line="75" data-link-type="dependency"><path d="M516.42,125.783 C718.24,123.243 1383.47,114.886 1587.99,112.326" style="stroke:#181818;stroke-width:1;" fill="none" id="ADMIN-backto-P25"/><polygon points="511.42,125.846,520.47,129.732,516.42,125.783,520.369,121.733,511.42,125.846" fill="#181818" style="stroke:#181818;stroke-width:1;stroke-linejoin:miter;stroke-miterlimit:10;"/><text x="1063.51" y="113.633" fill="#000" font-size="13" textLength="78.292">all incidents</text></g><!--reverse link RESPONDER to P28--><g class="link" data-entity-1="ent0002" data-entity-2="ent0017" id="lnk47" data-source-line="76" data-link-type="dependency"><path d="M547.326,333.987 C557.256,335.827 562.36,336.486 572.01,337.566 C840.98,367.806 912.68,373.076 1181.01,337.566 C1190.75,336.286 1200.95,334.196 1210.78,331.806" style="stroke:#181818;stroke-width:1;" fill="none" id="RESPONDER-backto-P28"/><polygon points="542.41,333.076,550.531,338.649,547.326,333.987,551.988,330.783,542.41,333.076" fill="#181818" style="stroke:#181818;stroke-width:1;stroke-linejoin:miter;stroke-miterlimit:10;"/><text x="826.01" y="354.633" fill="#000" font-size="13" textLength="167.553">assigned incident context</text></g><!--link P23 to NDB--><g class="link" data-entity-1="ent0012" data-entity-2="ent0009" id="lnk48" data-source-line="79" data-link-type="dependency"><path d="M1311.01,620.466 C1367.5,596.826 1469.04,550.876 1546.76,496.566 C1561.71,486.126 1562.38,479.796 1576.76,468.566 C1589.26,458.806 1599.615,451.754 1612.315,443.784" style="stroke:#181818;stroke-width:1;" fill="none" id="P23-to-NDB"/><polygon points="1616.55,441.126,1606.801,442.522,1612.315,443.784,1611.053,449.298,1616.55,441.126" fill="#181818" style="stroke:#181818;stroke-width:1;stroke-linejoin:miter;stroke-miterlimit:10;"/><text x="1397.26" y="492.633" fill="#000" font-size="13" textLength="106.133">incident.created</text></g><!--link P28 to NDB--><g class="link" data-entity-1="ent0017" data-entity-2="ent0009" id="lnk49" data-source-line="80" data-link-type="dependency"><path d="M1312.94,349.366 C1325.55,357.776 1339.69,365.946 1353.76,371.566 C1426.28,400.556 1510.36,412.644 1571.34,418.054" style="stroke:#181818;stroke-width:1;" fill="none" id="P28-to-NDB"/><polygon points="1576.32,418.496,1567.709,413.716,1571.34,418.054,1567.002,421.685,1576.32,418.496" fill="#181818" style="stroke:#181818;stroke-width:1;stroke-linejoin:miter;stroke-miterlimit:10;"/><text x="1382.76" y="367.633" fill="#000" font-size="13" textLength="135.84">assignment.changed</text></g><?plantuml-src fLLRRwD657xdLnpv8PjLxLoSgwhkIjWGPnG7BC29KY6jPc5iJuDdt07RTLVxttk6WG1D-x1QFzWmttUktpdZ3_3f9pxM1u30VWZlxT2-Ss40pfq3K_V9dS8GZeat9exhHV1eU_R4VTIFZXlPPFeHgQEZPpJ_gUWPMnHGI51ykIeWvOeb1PV2Ml6KGS9LaZ4hV-LYGnLTmreAcQoKN3CerBQDv2kQoZqNIrZGB6yZsYCLoup1DmjWH9FNYP9RaOvb9XKyhtZ1zBbKALFcR9GXoVhUzbv8HPUDX-KFUw09klXXUykOzSOa8h-x7fp2F7I37j2yVAXXr2MOkDxu1G8tdFcUKt7UtcgYxJmIZuHHO4U-ePGdbbKNs7E6K6jUuiGPjK7wXi9yvjYHQqZp3kiAx30a4--nTc9tu4kTrtZkGkJQZoKUTV3pLf4Tu0OyFo9tP6n7nFTAWeS4gr6uDpmvZyKuS36pM7GAcGtFkyHXB9xiAN5AwX6uNa36znLrsALUn6Bc1Y4sxftJYoxpCXPXP4VpC1RFVl1mD_MVA-9bbtWL2__PGwVtP0P7c0e9oOXCIVHIyQ-w_EjO12Hyq9rrmt0GYt8Leu1C9bMlPiFhhibDBEunPJzuGLjtx0SEyIOLzQPBlOr58raifiHxQBYtdGxR1Cf4KA8dCZRwsyJ2Us1WFf0eHWi66rgiwZDBAueldxKCy2lqGZ_4nVnpo_82Zel3XlKXGQEbL8T-B5AM9uflz4NGXqmYWayVUvOsDaw6secYUunoo2HDDJPiOqAgDStutvZ7IWfqlyEtLEV5n7QTOn3yOOeda4XSF2uqfB16blSnip-mu5Wif5go5BUV5jlyT9ipHTBJEfzso0iTiewG0dvJ3L-KCAwGXec7FOYQOnH17-SC3G9tvWUHwy2Awt4_QDQDCPwthO4BNd2QOH65OTM-hZM9YmIlJL40J-4NQ2TwNT9GEsGjoiiWXsFyvJi6jPLkoWvRik2OaM8RgV08hzE4PnYKvIW0EcY5onEf69mDpi_ET3YsOraJgwhQt19ulUUlFJC5l-68L1qRdfsZ8K_xLOi_rNtejUTfBzNh8fFxxaIztMrLHfVQ8KrtL2GCZbtlI-3FCV0f-DwNSEnwhavVNtOTlZZW7maLETUDGZ8gZkQ9N6yoLZ1TpUL_L6EoRT1Qol8OafKUe_-LSAFORl1Pi7s_OgQZGzlLhUPYCcOXTI_UOpJF-LAijTHLoPfrQqJkH3kjxkcMIKED3BLWvW-AxtXnQ52yWyejOml5yXNiUCw_wb7eKAuDPS1m-hVb3fLAD-eOkKstcwotct9JEZet0RfAwpnqiAgDc8pCS6pbNZ3LUqChXHOyAvY2huSQRyrSMGuUDnCFKcI7UYvQ99fb3UbzDRTDDRWgRrkNI56mlufEKK8Mk51c4VzTbjbTpoHUUpanrsVQDBaYDDqxgUQczmy0?></g></svg>